HIERARCHY
ROOT Hips
{
	OFFSET 0.000000 71.427986 0.000000
	CHANNELS 6 Xposition Yposition Zposition Xrotation Yrotation Zrotation
	JOINT Pelvis
	{
		OFFSET 0.000000 0.000000 0.000000
		CHANNELS 3 Xrotation Yrotation Zrotation
		JOINT LeftUpLeg
		{
			OFFSET 6.797100 -2.508499 -1.318700
			CHANNELS 3 Xrotation Yrotation Zrotation
			JOINT LeftLeg
			{
				OFFSET 0.069008 -29.241863 0.690200
				CHANNELS 3 Xrotation Yrotation Zrotation
				JOINT LeftFoot
				{
					OFFSET -0.069008 -29.568123 -0.266800
					CHANNELS 3 Xrotation Yrotation Zrotation
					JOINT LeftToeBase
					{
						OFFSET 3.145500 -8.631000 16.059900
						CHANNELS 3 Xrotation Yrotation Zrotation
						End Site
						{
							OFFSET 0.000000 18.501587 0.000000
						}
					}
				}
			}
			JOINT Left_ShortSleeve
			{
				OFFSET 0.265923 -10.480953 1.153800
				CHANNELS 3 Xrotation Yrotation Zrotation
				End Site
				{
					OFFSET 1.725763 19.823879 0.000000
				}
			}
		}
		JOINT RightUpLeg
		{
			OFFSET -6.797100 -2.508499 -1.318700
			CHANNELS 3 Xrotation Yrotation Zrotation
			JOINT RightLeg
			{
				OFFSET -0.082453 -29.241932 0.688000
				CHANNELS 3 Xrotation Yrotation Zrotation
				JOINT RightFoot
				{
					OFFSET 0.082453 -29.568058 -0.264600
					CHANNELS 3 Xrotation Yrotation Zrotation
					JOINT RightToeBase
					{
						OFFSET -3.115300 -8.682800 16.113400
						CHANNELS 3 Xrotation Yrotation Zrotation
						End Site
						{
							OFFSET 0.000000 18.567114 0.000000
						}
					}
				}
			}
			JOINT Right_ShortSleeve
			{
				OFFSET -0.265923 -10.480953 1.153800
				CHANNELS 3 Xrotation Yrotation Zrotation
				End Site
				{
					OFFSET -1.725766 19.823910 0.000000
				}
			}
		}
	}
	JOINT Spine
	{
		OFFSET 0.000000 13.368103 0.470500
		CHANNELS 3 Xrotation Yrotation Zrotation
		JOINT Spine1
		{
			OFFSET 0.147000 13.837402 0.538800
			CHANNELS 3 Xrotation Yrotation Zrotation
			JOINT Spine2
			{
				OFFSET 0.168000 16.242897 -1.435500
				CHANNELS 3 Xrotation Yrotation Zrotation
				JOINT Neck
				{
					OFFSET 0.217200 18.631500 -1.679100
					CHANNELS 3 Xrotation Yrotation Zrotation
					JOINT Head
					{
						OFFSET 0.000000 6.599396 1.385900
						CHANNELS 3 Xrotation Yrotation Zrotation
						JOINT Hat
						{
							OFFSET -0.532200 27.220596 -10.096100
							CHANNELS 3 Xrotation Yrotation Zrotation
							End Site
							{
								OFFSET 0.000000 22.029861 0.000000
							}
						}
						JOINT HairD
						{
							OFFSET -10.777400 17.437393 -1.325900
							CHANNELS 3 Xrotation Yrotation Zrotation
							JOINT HairD1
							{
								OFFSET -3.290299 -11.051193 1.062200
								CHANNELS 3 Xrotation Yrotation Zrotation
								End Site
								{
									OFFSET 0.000000 11.579437 0.000000
								}
							}
						}
						JOINT HairB
						{
							OFFSET -10.777400 17.437393 1.467900
							CHANNELS 3 Xrotation Yrotation Zrotation
							JOINT HairB1
							{
								OFFSET -1.561200 -12.956299 3.590200
								CHANNELS 3 Xrotation Yrotation Zrotation
								End Site
								{
									OFFSET 0.000000 13.534866 0.000000
								}
							}
						}
						JOINT HairA
						{
							OFFSET 9.713100 17.437393 1.467900
							CHANNELS 3 Xrotation Yrotation Zrotation
							JOINT HairA1
							{
								OFFSET 1.561200 -12.956299 3.590200
								CHANNELS 3 Xrotation Yrotation Zrotation
								End Site
								{
									OFFSET 0.000000 13.534866 0.000000
								}
							}
						}
						JOINT HairC
						{
							OFFSET 9.713100 17.437393 -1.325900
							CHANNELS 3 Xrotation Yrotation Zrotation
							JOINT HairC1
							{
								OFFSET 3.290300 -11.051193 1.062200
								CHANNELS 3 Xrotation Yrotation Zrotation
								End Site
								{
									OFFSET 0.000000 11.579437 0.000000
								}
							}
						}
					}
				}
				JOINT LeftShoulder
				{
					OFFSET 5.101800 15.108002 -2.763700
					CHANNELS 3 Xrotation Yrotation Zrotation
					JOINT LeftArm
					{
						OFFSET 9.825497 2.506317 -1.597400
						CHANNELS 3 Xrotation Yrotation Zrotation
						JOINT LeftForeArm
						{
							OFFSET 21.966244 0.000000 0.000000
							CHANNELS 3 Xrotation Yrotation Zrotation
							JOINT LeftHand
							{
								OFFSET 33.879036 0.000000 0.000000
								CHANNELS 3 Xrotation Yrotation Zrotation
								JOINT LeftHandThumb1
								{
									OFFSET 6.715286 -2.359680 3.363841
									CHANNELS 3 Xrotation Yrotation Zrotation
									JOINT LeftHandThumb2
									{
										OFFSET 2.507072 -1.447464 1.447461
										CHANNELS 3 Xrotation Yrotation Zrotation
										JOINT LeftHandThumb3
										{
											OFFSET 2.898338 -1.673355 1.673357
											CHANNELS 3 Xrotation Yrotation Zrotation
											End Site
											{
												OFFSET -0.295959 3.727692 -0.131651
											}
										}
									}
								}
								JOINT LeftHandIndex1
								{
									OFFSET 14.190811 -0.254547 3.840278
									CHANNELS 3 Xrotation Yrotation Zrotation
									JOINT LeftHandIndex2
									{
										OFFSET 3.551727 0.000000 -0.000000
										CHANNELS 3 Xrotation Yrotation Zrotation
										JOINT LeftHandIndex3
										{
											OFFSET 2.894196 0.000000 0.000000
											CHANNELS 3 Xrotation Yrotation Zrotation
											End Site
											{
												OFFSET -1.000603 2.690872 0.366626
											}
										}
									}
								}
								JOINT LeftHandMiddle1
								{
									OFFSET 13.776489 0.000000 0.000000
									CHANNELS 3 Xrotation Yrotation Zrotation
									JOINT LeftHandMiddle2
									{
										OFFSET 3.438232 0.000000 0.000000
										CHANNELS 3 Xrotation Yrotation Zrotation
										JOINT LeftHandMiddle3
										{
											OFFSET 3.691551 0.000000 0.000000
											CHANNELS 3 Xrotation Yrotation Zrotation
											End Site
											{
												OFFSET -1.082298 3.499527 0.457670
											}
										}
									}
								}
								JOINT LeftHandRing1
								{
									OFFSET 13.966164 -0.268127 -3.067488
									CHANNELS 3 Xrotation Yrotation Zrotation
									JOINT LeftHandRing2
									{
										OFFSET 3.162567 0.000000 0.000000
										CHANNELS 3 Xrotation Yrotation Zrotation
										JOINT LeftHandRing3
										{
											OFFSET 3.324348 0.000000 0.000000
											CHANNELS 3 Xrotation Yrotation Zrotation
											End Site
											{
												OFFSET -0.861900 3.184998 0.405154
											}
										}
									}
								}
								JOINT LeftHandPinky1
								{
									OFFSET 13.131393 -0.168503 -5.746925
									CHANNELS 3 Xrotation Yrotation Zrotation
									JOINT LeftHandPinky2
									{
										OFFSET 2.849182 0.000000 0.000000
										CHANNELS 3 Xrotation Yrotation Zrotation
										JOINT LeftHandPinky3
										{
											OFFSET 2.805038 0.000000 0.000000
											CHANNELS 3 Xrotation Yrotation Zrotation
											End Site
											{
												OFFSET -0.882500 2.642609 0.325652
											}
										}
									}
								}
							}
							JOINT Left_Sleeve
							{
								OFFSET 6.592125 -0.646545 0.805568
								CHANNELS 3 Xrotation Yrotation Zrotation
								End Site
								{
									OFFSET -0.000179 20.275787 -0.000000
								}
							}
						}
					}
				}
				JOINT RightShoulder
				{
					OFFSET -5.731700 15.108002 -2.763700
					CHANNELS 3 Xrotation Yrotation Zrotation
					JOINT RightArm
					{
						OFFSET -9.825497 2.506317 -1.597400
						CHANNELS 3 Xrotation Yrotation Zrotation
						JOINT RightForeArm
						{
							OFFSET -21.966242 0.000000 0.000000
							CHANNELS 3 Xrotation Yrotation Zrotation
							JOINT RightHand
							{
								OFFSET -33.879032 0.000000 0.000000
								CHANNELS 3 Xrotation Yrotation Zrotation
								JOINT RightHandThumb1
								{
									OFFSET -6.715286 -2.359680 3.363841
									CHANNELS 3 Xrotation Yrotation Zrotation
									JOINT RightHandThumb2
									{
										OFFSET -2.507072 -1.447464 1.447461
										CHANNELS 3 Xrotation Yrotation Zrotation
										JOINT RightHandThumb3
										{
											OFFSET -2.898338 -1.673355 1.673357
											CHANNELS 3 Xrotation Yrotation Zrotation
											End Site
											{
												OFFSET 0.295959 3.727692 -0.131651
											}
										}
									}
								}
								JOINT RightHandIndex1
								{
									OFFSET -14.190811 -0.254547 3.840278
									CHANNELS 3 Xrotation Yrotation Zrotation
									JOINT RightHandIndex2
									{
										OFFSET -3.551727 0.000000 -0.000000
										CHANNELS 3 Xrotation Yrotation Zrotation
										JOINT RightHandIndex3
										{
											OFFSET -2.894196 0.000000 0.000000
											CHANNELS 3 Xrotation Yrotation Zrotation
											End Site
											{
												OFFSET 1.000603 2.690872 0.366626
											}
										}
									}
								}
								JOINT RightHandMiddle1
								{
									OFFSET -13.776489 0.000000 0.000000
									CHANNELS 3 Xrotation Yrotation Zrotation
									JOINT RightHandMiddle2
									{
										OFFSET -3.438232 0.000000 0.000000
										CHANNELS 3 Xrotation Yrotation Zrotation
										JOINT RightHandMiddle3
										{
											OFFSET -3.691551 0.000000 0.000000
											CHANNELS 3 Xrotation Yrotation Zrotation
											End Site
											{
												OFFSET 1.082298 3.499527 0.457670
											}
										}
									}
								}
								JOINT RightHandRing1
								{
									OFFSET -13.966164 -0.268127 -3.067488
									CHANNELS 3 Xrotation Yrotation Zrotation
									JOINT RightHandRing2
									{
										OFFSET -3.162567 0.000000 0.000000
										CHANNELS 3 Xrotation Yrotation Zrotation
										JOINT RightHandRing3
										{
											OFFSET -3.324348 0.000000 0.000000
											CHANNELS 3 Xrotation Yrotation Zrotation
											End Site
											{
												OFFSET 0.861900 3.184998 0.405154
											}
										}
									}
								}
								JOINT RightHandPinky1
								{
									OFFSET -13.131393 -0.168503 -5.746925
									CHANNELS 3 Xrotation Yrotation Zrotation
									JOINT RightHandPinky2
									{
										OFFSET -2.849182 0.000000 0.000000
										CHANNELS 3 Xrotation Yrotation Zrotation
										JOINT RightHandPinky3
										{
											OFFSET -2.805038 0.000000 0.000000
											CHANNELS 3 Xrotation Yrotation Zrotation
											End Site
											{
												OFFSET 0.882500 2.642609 0.325652
											}
										}
									}
								}
							}
							JOINT Right_Sleeve
							{
								OFFSET -6.592125 -0.646545 0.805568
								CHANNELS 3 Xrotation Yrotation Zrotation
								End Site
								{
									OFFSET 0.000179 20.275787 -0.000000
								}
							}
						}
					}
				}
				JOINT Bind_Right_JacketString
				{
					OFFSET -3.534800 11.969597 7.200700
					CHANNELS 3 Xrotation Yrotation Zrotation
					JOINT Bind_Right_JacketString1
					{
						OFFSET -0.319900 -6.102600 2.794100
						CHANNELS 3 Xrotation Yrotation Zrotation
						End Site
						{
							OFFSET 0.000000 6.719452 0.000000
						}
					}
				}
				JOINT Bind_Left_JacketString
				{
					OFFSET 2.904800 11.969597 7.200700
					CHANNELS 3 Xrotation Yrotation Zrotation
					JOINT Bind_Left_JacketString1
					{
						OFFSET 0.364800 -5.904503 3.186800
						CHANNELS 3 Xrotation Yrotation Zrotation
						End Site
						{
							OFFSET 0.000000 6.719513 0.000000
						}
					}
				}
				JOINT HairE
				{
					OFFSET 5.915200 17.612701 -11.592200
					CHANNELS 3 Xrotation Yrotation Zrotation
					JOINT HairE1
					{
						OFFSET 0.289200 -7.171898 -1.284500
						CHANNELS 3 Xrotation Yrotation Zrotation
						End Site
						{
							OFFSET 0.000000 7.291756 0.000000
						}
					}
				}
				JOINT HairF
				{
					OFFSET -0.864800 17.612701 -11.592200
					CHANNELS 3 Xrotation Yrotation Zrotation
					JOINT HairF1
					{
						OFFSET 0.000000 -14.087097 -2.127501
						CHANNELS 3 Xrotation Yrotation Zrotation
						End Site
						{
							OFFSET 0.000000 14.246841 0.000000
						}
					}
				}
				JOINT HairG
				{
					OFFSET -8.087700 17.612701 -11.592200
					CHANNELS 3 Xrotation Yrotation Zrotation
					JOINT HairG1
					{
						OFFSET -0.293600 -6.081398 -0.910100
						CHANNELS 3 Xrotation Yrotation Zrotation
						End Site
						{
							OFFSET 0.000000 6.156120 0.000000
						}
					}
				}
			}
		}
	}
	JOINT Pouch
	{
		OFFSET 0.000000 4.394501 10.847300
		CHANNELS 3 Xrotation Yrotation Zrotation
		End Site
		{
			OFFSET 0.000000 21.880577 0.000000
		}
	}
	JOINT Bag
	{
		OFFSET -13.229000 4.813004 -0.593300
		CHANNELS 3 Xrotation Yrotation Zrotation
		End Site
		{
			OFFSET 0.000000 21.880577 0.000000
		}
	}
	JOINT OccupyGuyFacialAnim_Joint
	{
		OFFSET 1.000000 -70.206398 -1.655000
		CHANNELS 3 Xrotation Yrotation Zrotation
		End Site
		{
			OFFSET 0.000000 21.880577 0.000000
		}
	}
}
MOTION
Frames: 4
Frame Time: 0.016667
7.978980 137.948914 48.782513 6.083306 18.701288 0.249116 0.000000 0.000000 0.000000 -35.340860 22.620874 8.733081 59.670281 -3.455240 -0.215799 4.940397 -0.678793 -11.727748 0.000000 0.000003 0.000002 -0.000002 -0.000002 -0.000002 -44.683012 0.392228 -19.958837 22.353720 9.360507 1.085764 9.430722 18.507072 23.280995 -0.000000 -0.000001 0.000000 -0.000003 -0.000000 -0.000000 7.310345 -2.033283 -4.616702 14.411475 -2.597697 1.282300 14.393241 -2.607808 1.534271 -3.431910 0.659721 -7.971159 -4.476602 -10.464172 13.497318 -0.000000 0.000000 0.000000 -0.000000 0.000000 0.000000 -0.000000 0.000000 0.000000 -0.000000 0.000000 0.000001 -0.000004 -0.000000 0.000000 -0.000000 0.000000 0.000001 -0.000004 -0.000000 0.000000 -0.000000 0.000000 0.000000 -0.000000 0.000000 0.000000 -1.645777 11.892281 6.117613 -105.464418 -55.286642 -116.659071 -0.006077 -92.899076 -0.006008 -8.263614 -7.356841 2.186926 -3.500427 23.141890 9.972937 -2.408866 12.775514 10.381917 0.000000 0.000001 -0.000001 0.080924 1.054725 -8.775063 0.139283 1.380630 -11.520114 0.000002 0.000003 -0.000003 0.080631 1.052817 -8.759070 0.139658 1.382529 -11.536115 -0.000000 0.000000 -0.000001 0.080934 1.054715 -8.775056 0.139260 1.380634 -11.520123 -0.000003 -0.000001 -0.000005 0.683444 5.064147 -8.296813 0.133620 -2.674901 -12.020598 -0.000003 -0.000004 -0.000001 -0.000001 -0.000002 -0.000003 2.075048 14.947592 1.840489 -36.947314 40.337560 63.095034 -0.000009 48.043820 -0.000010 31.938924 2.596818 0.748843 -7.605219 -2.521685 -16.077625 4.602784 -15.232227 -8.617242 0.000000 0.000000 -0.000002 0.672569 -2.988287 25.363202 0.151855 -1.448112 11.972213 0.000002 0.000004 -0.000001 0.672574 -2.988288 25.363206 0.151863 -1.448125 11.972219 0.000002 -0.000003 0.000000 0.672564 -2.988266 25.363211 0.151862 -1.448129 11.972208 -0.000002 -0.000001 -0.000003 0.672574 -2.988290 25.363197 0.151860 -1.448121 11.972219 -0.000004 0.000002 0.000001 0.000000 -0.000000 -0.000002 0.000002 0.000000 0.000000 0.000002 0.000000 0.000001 0.000002 0.000000 -0.000000 0.000002 0.000000 -0.000000 0.000002 0.000000 0.000000 0.000002 0.000000 0.000001 0.000002 0.000000 -0.000000 0.000002 0.000000 -0.000000 0.000002 0.000000 0.000000 0.000002 0.000000 0.000001 0.000000 0.000000 0.000000 0.000000 0.000000 0.000000 0.000000 0.000000 0.000000 
8.075669 135.906525 50.702438 5.019701 18.502743 0.739237 0.000000 -0.000000 0.000000 -34.348499 22.584756 8.358938 58.454876 -2.732260 -0.176992 6.091025 -0.958519 -11.767605 -0.000003 0.000003 -0.000001 -0.000003 -0.000001 -0.000001 -42.754645 -0.113018 -19.889494 22.176793 8.913417 1.119662 10.856379 19.437086 22.411037 -0.000000 0.000003 0.000001 -0.000002 -0.000000 0.000000 7.351420 -1.888483 -4.641404 14.383885 -2.380558 1.213555 14.364178 -2.405678 1.448312 -3.302223 0.547485 -7.776382 -3.709823 -10.667863 13.127599 0.000003 -0.000000 -0.000000 0.000003 -0.000000 -0.000000 0.000003 -0.000000 -0.000000 0.000003 -0.000000 0.000000 0.000003 0.000000 -0.000000 0.000003 -0.000000 0.000000 0.000003 0.000000 -0.000000 0.000003 -0.000000 -0.000000 0.000003 -0.000000 -0.000000 -1.522757 11.317941 5.579480 -102.529397 -55.782998 -113.588785 0.837901 -91.989862 0.836785 -9.879208 -6.284509 1.313724 -3.500392 23.141767 9.972885 -2.408820 12.775479 10.381838 0.000000 0.000001 0.000001 0.080940 1.054716 -8.774984 0.139248 1.380629 -11.520051 -0.000000 0.000003 -0.000001 0.080624 1.052811 -8.759017 0.139670 1.382517 -11.536027 0.000001 0.000000 -0.000001 0.080929 1.054711 -8.774987 0.139269 1.380630 -11.520027 -0.000000 0.000001 -0.000001 0.683428 5.064141 -8.296747 0.133634 -2.674915 -12.020511 -0.000003 0.000002 0.000003 0.000001 0.000001 0.000002 2.084709 14.908503 1.923968 -37.666123 40.172605 63.297733 0.000021 48.302664 -0.000040 32.519408 2.624568 1.993036 -7.604278 -2.522119 -16.076189 4.602806 -15.232164 -8.617179 0.000001 -0.000002 0.000000 0.672569 -2.988263 25.363011 0.151854 -1.448107 11.972135 -0.000000 -0.000001 0.000002 0.672562 -2.988264 25.363020 0.151859 -1.448109 11.972137 0.000002 -0.000001 0.000001 0.672569 -2.988246 25.363020 0.151858 -1.448106 11.972131 -0.000002 -0.000002 0.000000 0.672555 -2.988264 25.363008 0.151864 -1.448106 11.972142 -0.000001 0.000001 -0.000003 -0.000000 -0.000001 -0.000002 0.000000 0.000000 0.000000 0.000004 -0.000000 -0.000000 0.000000 0.000000 0.000000 0.000000 0.000000 0.000000 0.000000 0.000000 0.000000 0.000004 -0.000000 0.000000 0.000000 0.000000 0.000000 0.000000 0.000000 0.000000 0.000000 0.000000 0.000000 0.000004 -0.000000 0.000000 0.000000 -0.000000 0.000000 0.000000 -0.000000 0.000000 0.000000 -0.000000 0.000000 
8.169477 133.679260 52.647415 3.932128 18.178171 1.212361 -0.000000 0.000001 -0.000000 -33.110394 22.404409 8.026868 56.961455 -2.523047 -0.162027 6.975881 -1.192068 -12.193627 0.000004 0.000002 -0.000001 0.000002 0.000006 0.000003 -40.803171 -0.723015 -19.671237 22.124379 8.538314 1.135869 12.225712 19.833469 21.313960 -0.000000 0.000001 0.000000 -0.000001 0.000000 -0.000001 7.380509 -1.727929 -4.645767 14.331762 -2.196023 1.072488 14.312124 -2.231721 1.291071 -3.139358 0.436489 -7.492980 -2.915445 -10.754769 12.844840 0.000002 0.000000 -0.000000 0.000002 0.000000 -0.000000 0.000002 0.000000 -0.000000 0.000002 0.000000 0.000000 -0.000002 0.000000 -0.000000 0.000002 0.000000 0.000000 -0.000002 0.000000 -0.000000 0.000002 0.000000 -0.000000 0.000002 0.000000 -0.000000 -1.447313 10.959917 5.211208 -99.827702 -56.207198 -110.766728 -0.006133 -90.695876 -0.005894 -11.177058 -5.296986 0.456601 -3.500358 23.141559 9.972845 -2.408749 12.775442 10.381730 0.000000 -0.000001 0.000001 0.080927 1.054703 -8.774908 0.139268 1.380610 -11.519923 0.000002 0.000000 -0.000002 0.080633 1.052799 -8.758925 0.139648 1.382508 -11.535909 -0.000002 -0.000000 -0.000001 0.080920 1.054696 -8.774902 0.139262 1.380618 -11.519932 0.000002 0.000000 -0.000000 0.683421 5.064131 -8.296665 0.133621 -2.674928 -12.020399 -0.000001 0.000000 0.000001 0.000002 -0.000000 0.000001 2.080138 14.739079 2.062843 -38.227838 39.650976 63.883695 0.000009 49.554375 -0.000010 33.231770 2.131657 3.145266 -7.602983 -2.522618 -16.074145 4.602785 -15.232094 -8.617083 0.000001 -0.000001 0.000001 0.672550 -2.988221 25.362757 0.151864 -1.448082 11.971985 0.000000 0.000002 0.000001 0.672536 -2.988220 25.362760 0.151879 -1.448109 11.971995 -0.000001 0.000002 -0.000000 0.672548 -2.988203 25.362755 0.151868 -1.448103 11.971985 0.000002 -0.000002 0.000001 0.672546 -2.988224 25.362755 0.151870 -1.448095 11.971996 0.000000 -0.000001 -0.000001 0.000002 0.000001 0.000000 -0.000002 0.000000 0.000001 -0.000000 0.000001 0.000000 -0.000002 0.000000 -0.000000 -0.000002 0.000000 -0.000000 -0.000002 0.000000 0.000001 -0.000000 0.000001 0.000001 -0.000002 0.000000 -0.000000 -0.000002 0.000000 -0.000000 -0.000002 0.000000 0.000001 -0.000000 0.000001 0.000001 -0.000000 0.000001 -0.000000 -0.000000 0.000001 -0.000000 -0.000000 0.000001 -0.000000 
8.261801 131.272934 54.604771 2.859789 17.776971 1.638693 -0.000000 -0.000001 0.000000 -31.697774 22.111219 7.702276 55.160816 -2.653288 -0.162627 7.650188 -1.389634 -12.906185 0.000000 0.000000 0.000002 0.000001 0.000002 -0.000001 -38.831780 -1.431826 -19.340359 22.145053 8.217319 1.132385 13.533585 19.707536 20.106752 0.000000 0.000002 0.000000 0.000002 0.000001 -0.000001 7.390968 -1.558497 -4.615687 14.253386 -2.029492 0.889716 14.234362 -2.070372 1.095188 -2.973558 0.335320 -7.170156 -2.167498 -10.752426 12.661432 0.000001 0.000000 -0.000000 0.000001 0.000000 -0.000000 0.000001 0.000000 -0.000000 0.000001 0.000000 -0.000000 -0.000001 0.000000 -0.000000 0.000001 0.000000 -0.000000 -0.000001 0.000000 -0.000000 0.000001 0.000000 -0.000000 0.000001 0.000000 -0.000000 -1.416801 10.842148 5.015826 -97.509242 -56.558488 -108.357884 -0.005198 -89.117877 -0.005380 -12.155362 -4.424784 -0.433190 -3.500307 23.141367 9.972780 -2.408707 12.775398 10.381625 -0.000001 -0.000000 0.000002 0.080921 1.054698 -8.774835 0.139266 1.380589 -11.519790 0.000004 0.000002 0.000000 0.080632 1.052794 -8.758827 0.139646 1.382478 -11.535782 -0.000000 0.000001 0.000001 0.080926 1.054690 -8.774829 0.139259 1.380598 -11.519791 -0.000002 -0.000002 -0.000002 0.683421 5.064126 -8.296570 0.133613 -2.674947 -12.020284 -0.000001 -0.000001 -0.000001 -0.000002 0.000001 -0.000003 2.065497 14.495181 2.197901 -38.516407 38.803934 64.754933 -0.000005 51.747074 0.000009 34.057591 1.236707 4.088634 -7.601789 -2.522967 -16.072122 4.602800 -15.232042 -8.616994 0.000001 -0.000000 0.000003 0.672535 -2.988202 25.362500 0.151851 -1.448075 11.971883 -0.000001 0.000003 0.000003 0.672534 -2.988202 25.362500 0.151850 -1.448072 11.971886 -0.000003 0.000002 -0.000001 0.672541 -2.988178 25.362497 0.151848 -1.448092 11.971886 0.000002 0.000004 -0.000001 0.672541 -2.988200 25.362494 0.151848 -1.448082 11.971882 -0.000000 -0.000001 0.000002 0.000002 0.000000 0.000000 -0.000000 0.000000 -0.000000 -0.000000 -0.000001 -0.000000 -0.000000 0.000000 -0.000000 -0.000000 0.000000 -0.000000 -0.000000 0.000000 -0.000000 -0.000000 -0.000001 0.000000 -0.000000 0.000000 -0.000000 -0.000000 0.000000 -0.000000 -0.000000 0.000000 -0.000000 -0.000000 -0.000001 0.000000 -0.000000 -0.000001 0.000000 -0.000000 -0.000001 0.000000 -0.000000 -0.000001 0.000000 
